# xmcd
#
# Track frame offsets: 
#        150
#        27291
#        41532
#        55676
#        74281
#        88615
#        103969
#        122233
#        140012
#        158090
#        170988
#        186963
#        203240
#        220262
#        236637
#        248762
#        266268
#        287518
#        310217
#        331509
#
# Disc length: 4702 seconds
#
# Revision: 0
# Processed by: cddbd v1.5.1PL0 Copyright (c) Steve Scherf et al.
# Submitted via: ExactAudioCopy v0.95a5
#
DISCID=25125c14
DTITLE=蔡琴 - 银色月光下CD1
DYEAR=2004
DGENRE=Country
TTITLE0=在那遥远的地方
TTITLE1=在那银色的月光下
TTITLE2=可爱的一朵玫瑰花
TTITLE3=花针引线线穿针
TTITLE4=茉莉花
TTITLE5=乡恋
TTITLE6=弯弯的月亮
TTITLE7=走西口
TTITLE8=敖包相会
TTITLE9=康定情歌
TTITLE10=康定情歌+青春舞曲
TTITLE11=歌声与微笑
TTITLE12=歌声与微笑（流浪版）
TTITLE13=夜上海+花落谁家
TTITLE14=被遗忘的时光
TTITLE15=渡口
TTITLE16=抉择
TTITLE17=恨不相逢未嫁时
TTITLE18=缺口
TTITLE19=心太急
EXTD=
EXTT0=
EXTT1=
EXTT2=
EXTT3=
EXTT4=
EXTT5=
EXTT6=
EXTT7=
EXTT8=
EXTT9=
EXTT10=
EXTT11=
EXTT12=
EXTT13=
EXTT14=
EXTT15=
EXTT16=
EXTT17=
EXTT18=
EXTT19=
PLAYORDER=
